<svg width="79" height="21" viewBox="0 0 79 21" fill="none" xmlns="http://www.w3.org/2000/svg">
<path d="M19.7213 20L23.1667 3.68533H31.2227C32.8778 3.68533 34.1444 4.12444 35.0227 5.00267C35.9009 5.864 36.34 6.96178 36.34 8.296C36.34 8.73511 36.2893 9.19956 36.188 9.68933C35.9516 10.8378 35.5378 11.8596 34.9467 12.7547C34.3724 13.6498 33.6124 14.3507 32.6667 14.8573C31.7378 15.364 30.5978 15.6173 29.2467 15.6173H25.396L24.484 20H19.7213ZM26.1813 11.9693H28.6387C29.5 11.9693 30.1249 11.7582 30.5133 11.336C30.9187 10.9138 31.1889 10.3649 31.324 9.68933C31.3578 9.52044 31.3831 9.36 31.4 9.208C31.4169 9.056 31.4253 8.91244 31.4253 8.77733C31.4253 8.32133 31.2987 7.96667 31.0453 7.71333C30.8089 7.46 30.3782 7.33333 29.7533 7.33333H27.1693L26.1813 11.9693ZM41.6919 20.2533C39.851 20.2533 38.4154 19.8649 37.3852 19.088C36.355 18.2942 35.8399 17.1373 35.8399 15.6173C35.8399 15.364 35.8483 15.1022 35.8652 14.832C35.899 14.5618 35.9496 14.2831 36.0172 13.996C36.4563 11.9693 37.343 10.424 38.6772 9.36C40.0114 8.27911 41.903 7.73867 44.3519 7.73867C46.311 7.73867 47.7888 8.15244 48.7852 8.98C49.7816 9.80756 50.2799 10.9476 50.2799 12.4C50.2799 12.6533 50.263 12.9151 50.2292 13.1853C50.2123 13.4387 50.1701 13.7089 50.1025 13.996C49.6803 16.0396 48.7768 17.5933 47.3919 18.6573C46.007 19.7213 44.107 20.2533 41.6919 20.2533ZM42.4265 16.7827C43.2034 16.7827 43.8114 16.5631 44.2505 16.124C44.7065 15.6849 45.0359 14.9756 45.2385 13.996C45.3399 13.54 45.3905 13.1347 45.3905 12.78C45.3905 12.2396 45.247 11.8427 44.9599 11.5893C44.6896 11.336 44.2421 11.2093 43.6172 11.2093C42.8572 11.2093 42.2576 11.4373 41.8185 11.8933C41.3963 12.3324 41.0839 13.0333 40.8812 13.996C40.7799 14.5027 40.7292 14.9333 40.7292 15.288C40.7292 15.8116 40.8559 16.1916 41.1092 16.428C41.3794 16.6644 41.8185 16.7827 42.4265 16.7827ZM57.0551 20.2533C55.2143 20.2533 53.7787 19.8649 52.7485 19.088C51.7183 18.2942 51.2031 17.1373 51.2031 15.6173C51.2031 15.364 51.2116 15.1022 51.2285 14.832C51.2623 14.5618 51.3129 14.2831 51.3805 13.996C51.8196 11.9693 52.7063 10.424 54.0405 9.36C55.3747 8.27911 57.2663 7.73867 59.7151 7.73867C61.6743 7.73867 63.152 8.15244 64.1485 8.98C65.1449 9.80756 65.6431 10.9476 65.6431 12.4C65.6431 12.6533 65.6263 12.9151 65.5925 13.1853C65.5756 13.4387 65.5334 13.7089 65.4658 13.996C65.0436 16.0396 64.14 17.5933 62.7551 18.6573C61.3703 19.7213 59.4703 20.2533 57.0551 20.2533ZM57.7898 16.7827C58.5667 16.7827 59.1747 16.5631 59.6138 16.124C60.0698 15.6849 60.3991 14.9756 60.6018 13.996C60.7031 13.54 60.7538 13.1347 60.7538 12.78C60.7538 12.2396 60.6103 11.8427 60.3231 11.5893C60.0529 11.336 59.6054 11.2093 58.9805 11.2093C58.2205 11.2093 57.6209 11.4373 57.1818 11.8933C56.7596 12.3324 56.4471 13.0333 56.2445 13.996C56.1431 14.5027 56.0925 14.9333 56.0925 15.288C56.0925 15.8116 56.2191 16.1916 56.4725 16.428C56.7427 16.6644 57.1818 16.7827 57.7898 16.7827ZM66.6678 20L68.4664 11.5133H66.9211L67.6558 7.992H69.2011L69.3784 7.20667C69.5811 6.29467 69.902 5.49244 70.3411 4.8C70.7971 4.09067 71.4051 3.53333 72.1651 3.128C72.942 2.72267 73.8962 2.52 75.0278 2.52C75.6864 2.52 76.2606 2.57067 76.7504 2.672C77.2402 2.77333 77.6962 2.91689 78.1184 3.10267L77.4598 6.19333C77.2402 6.10889 77.0122 6.04133 76.7758 5.99067C76.5393 5.94 76.286 5.91467 76.0158 5.91467C75.4078 5.91467 74.9602 6.02444 74.6731 6.244C74.4029 6.46356 74.2171 6.81822 74.1158 7.308L73.9638 7.992H76.8011L75.8638 11.5133H73.2291L71.4304 20H66.6678Z" fill="white"/>
<path d="M12.8177 8.08795C15.6368 9.93507 22.1867 5.32474 23.1678 3.69648L19.9954 20.0351C20.0027 19.0409 16.9393 12.783 13.7018 14.0664C13.2094 14.2615 16.2424 17.6028 12.2028 16.7686C9.00017 16.1073 8.35858 12.7896 8.54895 10.9141C8.73933 9.03859 5.25692 8.48171 3.87065 10.3822C1.92596 13.0482 -0.556669 7.91989 1.11748 7.25632C3.23826 6.41573 5.80823 8.18235 4.03882 4.50106C2.26941 0.819771 6.71501 -1.88947 13.2527 2.17833C17.6554 4.91772 9.53615 5.93786 12.8177 8.08795Z" fill="url(#paint0_linear_0_1)"/>
<defs>
<linearGradient id="paint0_linear_0_1" x1="20.1134" y1="10.1025" x2="2.94329" y2="2.70412" gradientUnits="userSpaceOnUse">
<stop stop-color="white"/>
<stop offset="1" stop-color="#0010C6"/>
</linearGradient>
</defs>
</svg>
