<svg width="30" height="30" viewBox="0 0 30 30" fill="none" xmlns="http://www.w3.org/2000/svg">
<path d="M27.5 15C27.5 21.9036 21.9036 27.5 15 27.5M27.5 15C27.5 8.09644 21.9036 2.5 15 2.5M27.5 15H2.5M15 27.5C8.09644 27.5 2.5 21.9036 2.5 15M15 27.5C18.1266 24.0771 19.9034 19.635 20 15C19.9034 10.365 18.1266 5.92294 15 2.5M15 27.5C11.8734 24.0771 10.0966 19.635 10 15C10.0966 10.365 11.8734 5.92294 15 2.5M2.5 15C2.5 8.09644 8.09644 2.5 15 2.5" stroke="#F3F3F3" stroke-width="2" stroke-linecap="round" stroke-linejoin="round"/>
</svg>
