<svg width="35" height="35" viewBox="0 0 35 35" fill="none" xmlns="http://www.w3.org/2000/svg">
<path d="M8.53133 24.9376C9.77091 23.9897 11.1563 23.2423 12.6876 22.6954C14.2188 22.1485 15.823 21.8751 17.5001 21.8751C19.1772 21.8751 20.7813 22.1485 22.3126 22.6954C23.8438 23.2423 25.2292 23.9897 26.4688 24.9376C27.3195 23.9411 27.9819 22.8108 28.4558 21.547C28.9298 20.2831 29.1667 18.9341 29.1667 17.5001C29.1667 14.2674 28.0305 11.5148 25.7579 9.24227C23.4853 6.9697 20.7327 5.83341 17.5001 5.83341C14.2674 5.83341 11.5148 6.9697 9.24227 9.24227C6.9697 11.5148 5.83341 14.2674 5.83341 17.5001C5.83341 18.9341 6.07039 20.2831 6.54435 21.547C7.01831 22.8108 7.68064 23.9411 8.53133 24.9376ZM17.5001 18.9584C16.0661 18.9584 14.8569 18.4662 13.8725 17.4819C12.8881 16.4975 12.3959 15.2883 12.3959 13.8542C12.3959 12.4202 12.8881 11.211 13.8725 10.2266C14.8569 9.24227 16.0661 8.75008 17.5001 8.75008C18.9341 8.75008 20.1433 9.24227 21.1277 10.2266C22.1121 11.211 22.6042 12.4202 22.6042 13.8542C22.6042 15.2883 22.1121 16.4975 21.1277 17.4819C20.1433 18.4662 18.9341 18.9584 17.5001 18.9584ZM17.5001 32.0834C15.4827 32.0834 13.5869 31.7006 11.8126 30.935C10.0383 30.1693 8.49487 29.1303 7.18237 27.8178C5.86987 26.5053 4.83081 24.9619 4.06519 23.1876C3.29956 21.4133 2.91675 19.5174 2.91675 17.5001C2.91675 15.4827 3.29956 13.5869 4.06519 11.8126C4.83081 10.0383 5.86987 8.49487 7.18237 7.18237C8.49487 5.86987 10.0383 4.83081 11.8126 4.06519C13.5869 3.29956 15.4827 2.91675 17.5001 2.91675C19.5174 2.91675 21.4133 3.29956 23.1876 4.06519C24.9619 4.83081 26.5053 5.86987 27.8178 7.18237C29.1303 8.49487 30.1693 10.0383 30.935 11.8126C31.7006 13.5869 32.0834 15.4827 32.0834 17.5001C32.0834 19.5174 31.7006 21.4133 30.935 23.1876C30.1693 24.9619 29.1303 26.5053 27.8178 27.8178C26.5053 29.1303 24.9619 30.1693 23.1876 30.935C21.4133 31.7006 19.5174 32.0834 17.5001 32.0834Z" fill="#FEF7FF"/>
</svg>
